<svg xmlns="http://www.w3.org/2000/svg" style="display: none;">
  <symbol id="icon-email"
          viewBox="0 0 24 24"
          fill="none"
          stroke="currentColor"
          stroke-width="2"
          stroke-linecap="round"
          stroke-linejoin="round">
    <path d="M4 4h16c1.1 0 2 .9 2 2v12c0 1.1-.9 2-2 2H4c-1.1 0-2-.9-2-2V6c0-1.1.9-2 2-2z"/>
    <!-- Letter lines -->
    <path d="M22 6l-10 7L2 6" stroke-width="1.5"/>
  </symbol>
  <symbol id="icon-sms"
          viewBox="0 0 24 24"
          fill="none"
          stroke="currentColor"
          stroke-width="2"
          stroke-linecap="round"
          stroke-linejoin="round">
    <path d="M12 18h.01M8 21h8a2 2 0 002-2V5a2 2 0 00-2-2H8a2 2 0 00-2 2v14a2 2 0 002 2z"/>
  </symbol>
  <symbol id="icon-phone"
          viewBox="0 0 24 24"
          fill="none"
          stroke="currentColor"
          stroke-width="2"
          stroke-linecap="round"
          stroke-linejoin="round">
    <path d="M3 5a2 2 0 012-2h3.28a1 1 0 01.948.684l1.498 4.493a1 1 0 01-.502 1.21l-2.257 1.13a11.042 11.042 0 005.516 5.516l1.13-2.257a1 1 0 011.21-.502l4.493 1.498a1 1 0 01.684.949V19a2 2 0 01-2 2h-1C9.716 21 3 14.284 3 6V5z"/>
  </symbol>
  <symbol id="icon-map-pin"
          viewBox="0 0 24 24"
          fill="none"
          stroke="currentColor"
          stroke-width="2"
          stroke-linecap="round"
          stroke-linejoin="round">
    <path d="M17.657 16.657L13.414 20.9a1.998 1.998 0 01-2.827 0l-4.244-4.243a8 8 0 1111.314 0z"/>
    <path d="M15 11a3 3 0 11-6 0 3 3 0 016 0z"/>
  </symbol>
  <symbol id="icon-plus"
          viewBox="0 0 24 24"
          fill="none"
          stroke="currentColor"
          stroke-width="2"
          stroke-linecap="round"
          stroke-linejoin="round">
    <path d="M5 12h14"/>
    <path d="M12 5v14"/>
  </symbol>
  <symbol id="icon-edit"
          viewBox="0 0 24 24"
          fill="none"
          stroke="currentColor"
          stroke-width="2"
          stroke-linecap="round"
          stroke-linejoin="round">
    <path d="M11 5H6a2 2 0 00-2 2v11a2 2 0 002 2h11a2 2 0 002-2v-5m-1.414-9.414a2 2 0 112.828 2.828L11.828 15H9v-2.828l8.586-8.586z"/>
  </symbol>
  <symbol id="icon-trash"
          viewBox="0 0 24 24"
          fill="none"
          stroke="currentColor"
          stroke-width="2"
          stroke-linecap="round"
          stroke-linejoin="round">
    <path d="M19 7l-.867 12.142A2 2 0 0116.138 21H7.862a2 2 0 01-1.995-1.858L5 7m5 4v6m4-6v6m1-10V4a1 1 0 00-1-1h-4a1 1 0 00-1 1v3M4 7h16"/>
  </symbol>
  <symbol id="icon-dashboard"
          viewBox="0 0 24 24"
          fill="none"
          stroke="currentColor"
          stroke-width="2"
          stroke-linecap="round"
          stroke-linejoin="round">
    <rect x="3" y="3" width="7" height="7" />
    <rect x="14" y="3" width="7" height="7" />
    <rect x="3" y="14" width="7" height="7" />
    <rect x="14" y="14" width="7" height="7" />
  </symbol>
  <symbol id="icon-menu"
          viewBox="0 0 24 24"
          fill="none"
          stroke="currentColor"
          stroke-width="2"
          stroke-linecap="round"
          stroke-linejoin="round">
    <path stroke-linecap="round" stroke-linejoin="round" stroke-width="2" d="M4 6h16M4 12h16M4 18h7" />
  </symbol>
  <symbol id="icon-search"
          viewBox="0 0 24 24"
          fill="none"
          stroke="currentColor"
          stroke-width="2"
          stroke-linecap="round"
          stroke-linejoin="round">
    <circle cx="11" cy="11" r="8"/>
    <path d="m21 21-4.3-4.3"/>
  </symbol>
  <symbol id="icon-lock"
          viewBox="0 0 24 24"
          fill="none"
          stroke="currentColor"
          stroke-width="2"
          stroke-linecap="round"
          stroke-linejoin="round">
    <path d="M12 15v2m-6 4h12a2 2 0 002-2v-6a2 2 0 00-2-2H6a2 2 0 00-2 2v6a2 2 0 002 2zm10-10V7a4 4 0 00-8 0v4h8z" />
  </symbol>
  <symbol id="icon-csv"
          viewBox="0 0 24 24"
          fill="#000"
          color="#000"
          stroke="currentColor"
          stroke-width="2"
          stroke-linecap="round"
          stroke-linejoin="round">
    <!-- Document -->
    <path d="M14 2H6a2 2 0 0 0-2 2v16a2 2 0 0 0 2 2h12a2 2 0 0 0 2-2V8z"/>
    <!-- Grid representing spreadsheet -->
    <path d="M8 12h8M8 16h8M12 12v4" stroke-width="1.25"/>
    <!-- Arrow for export -->
    <path d="M14 2v6h6" stroke-width="1.75"/>
  </symbol>
  <symbol id="icon-xml"
          viewBox="0 0 24 24"
          fill="#000"
          color="#000"
          stroke="currentColor"
          stroke-width="2"
          stroke-linecap="round"
          stroke-linejoin="round">
    <!-- Document -->
    <path d="M14 2H6a2 2 0 0 0-2 2v16a2 2 0 0 0 2 2h12a2 2 0 0 0 2-2V8z"/>
    <!-- XML brackets -->
    <path d="M10 9l3-3 3 3m-6 6l3 3 3-3" stroke-width="1.5"/>
    <!-- Arrow for export -->
    <path d="M14 2v6h6" stroke-width="1.75"/>
  </symbol>
  <symbol id="icon-drag-handle" viewBox="0 0 24 24" fill="none"
          stroke="currentColor" stroke-width="2"
          stroke-linecap="round" stroke-linejoin="round">
    <path d="M4 8h16" />
    <path d="M4 12h16" />
    <path d="M4 16h16" />
  </symbol>
  <symbol id="icon-notes"
          viewBox="0 0 24 24"
          fill="none"
          stroke="currentColor"
          stroke-width="2"
          stroke-linecap="round"
          stroke-linejoin="round">
    <path stroke="currentColor" d="M9 12h6m-6 4h6m2 5H7a2 2 0 01-2-2V5a2 2 0 012-2h5.586a1 1 0 01.707.293l5.414 5.414a1 1 0 01.293.707V19a2 2 0 01-2 2z"/>
  </symbol>
  <symbol id="icon-eye"
          viewBox="0 0 24 24"
          fill="none"
          stroke="currentColor"
          stroke-width="2"
          stroke-linecap="round"
          stroke-linejoin="round">
    <path d="M15 12a3 3 0 11-6 0 3 3 0 016 0z" />
    <path d="M2.458 12C3.732 7.943 7.523 5 12 5c4.478 0 8.268 2.943 9.542 7-1.274 4.057-5.064 7-9.542 7-4.477 0-8.268-2.943-9.542-7z" />
  </symbol>
  <symbol id="icon-eye-off"
          viewBox="0 0 24 24"
          fill="none"
          stroke="currentColor"
          stroke-width="2"
          stroke-linecap="round"
          stroke-linejoin="round">
    <path d="M15 12a3 3 0 11-6 0 3 3 0 016 0z" />
    <path d="M2.458 12C3.732 7.943 7.523 5 12 5c4.478 0 8.268 2.943 9.542 7-1.274 4.057-5.064 7-9.542 7-4.477 0-8.268-2.943-9.542-7z" />
    <path d="M1 1l22 22" />
  </symbol>
  <symbol id="icon-widgets"
          viewBox="0 0 24 24"
          fill="none"
          stroke="currentColor"
          stroke-width="2"
          stroke-linecap="round"
          stroke-linejoin="round">
    <!-- Grid squares representing widgets -->
    <rect x="3" y="3" width="7" height="7" rx="1"/>
    <rect x="14" y="3" width="7" height="7" rx="1"/>
    <rect x="3" y="14" width="7" height="7" rx="1"/>
    <rect x="14" y="14" width="7" height="7" rx="1"/>
    <!-- Connector lines -->
    <path d="M10 6.5h4M10 17.5h4M6.5 10v4M17.5 10v4"/>
  </symbol>
  <!-- Camera/Photo Upload -->
  <symbol id="icon-camera"
          viewBox="0 0 24 24"
          fill="none"
          stroke="currentColor"
          stroke-width="2"
          stroke-linecap="round"
          stroke-linejoin="round">
    <path d="M23 19a2 2 0 0 1-2 2H3a2 2 0 0 1-2-2V8a2 2 0 0 1 2-2h4l2-3h6l2 3h4a2 2 0 0 1 2 2z"/>
    <circle cx="12" cy="13" r="4"/>
  </symbol>
  <!-- PDF Upload -->
  <symbol id="icon-pdf"
          viewBox="0 0 24 24"
          fill="none"
          stroke="currentColor"
          stroke-width="2"
          stroke-linecap="round"
          stroke-linejoin="round">
    <path d="M14 2H6a2 2 0 0 0-2 2v16a2 2 0 0 0 2 2h12a2 2 0 0 0 2-2V8z"/>
    <path d="M8 12h1"/><path d="M12 12h1"/><path d="M16 12h1"/>
    <path d="M10 16v-4a1 1 0 0 1 1-1h2a1 1 0 0 1 1 1v4"/>
  </symbol>
  <!-- Generic File Upload -->
  <symbol id="icon-file-upload"
          viewBox="0 0 24 24"
          fill="none"
          stroke="currentColor"
          stroke-width="2"
          stroke-linecap="round"
          stroke-linejoin="round">
    <path d="M14 2H6a2 2 0 0 0-2 2v16a2 2 0 0 0 2 2h12a2 2 0 0 0 2-2V8z"/>
    <path d="M12 12v6m0 0l3-3m-3 3l-3-3"/>
  </symbol>
  <symbol id="icon-dollar"
          viewBox="0 0 24 24"
          fill="none"
          stroke="currentColor"
          stroke-width="2"
          stroke-linecap="round"
          stroke-linejoin="round">
    <path d="M12 2v20M17 5H9.5a3.5 3.5 0 100 7h5a3.5 3.5 0 110 7H6"/>
  </symbol>
  <symbol id="icon-logout"
          viewBox="0 0 24 24"
          fill="none"
          stroke="currentColor"
          stroke-width="2"
          stroke-linecap="round"
          stroke-linejoin="round">
    <path d="M9 21H5a2 2 0 0 1-2-2V5a2 2 0 0 1 2-2h4"/>
    <polyline points="16 17 21 12 16 7"/>
    <line x1="21" y1="12" x2="9" y2="12"/>
  </symbol>
  <!-- Page Navigation -->
  <symbol id="icon-first-page" viewBox="0 0 24 24" fill="currentColor">
    <path d="M18.41 16.59L13.82 12l4.59-4.59L17 6l-6 6 6 6zM6 6h2v12H6z"/>
  </symbol>
  <symbol id="icon-chevron-left" viewBox="0 0 24 24" fill="currentColor">
    <path d="M15.41 7.41L14 6l-6 6 6 6 1.41-1.41L10.83 12z"/>
  </symbol>
  <symbol id="icon-chevron-right" viewBox="0 0 24 24" fill="currentColor">
    <path d="M10 6L8.59 7.41 13.17 12l-4.58 4.59L10 18l6-6z"/>
  </symbol>
  <symbol id="icon-last-page" viewBox="0 0 24 24" fill="currentColor">
    <path d="M5.59 7.41L10.18 12l-4.59 4.59L7 18l6-6-6-6zM16 6h2v12h-2z"/>
  </symbol>
</svg>